<svg xmlns="http://www.w3.org/2000/svg" version="1.1" xmlns:xlink="http://www.w3.org/1999/xlink" xmlnsSvgjs="http://svgjs.dev/svgjs" width="2000" height="2616" viewBox="0 0 2000 2616"><g transform="matrix(1,0,0,1,0.34505087867478323,0.8000000000001819)"><svg viewBox="0 0 250 327" data-background-color="#231239" preserveAspectRatio="xMidYMid meet" height="2616" width="2000" xmlns="http://www.w3.org/2000/svg" xmlnsXlink="http://www.w3.org/1999/xlink"><g id="tight-bounds" transform="matrix(1,0,0,1,-0.0429649060120596,-0.10000000000002274)"><svg viewBox="0 0 250.08553227395836 327.2" height="327.2" width="250.08553227395836"><g><svg viewBox="0 0 395.52 517.4795311958796" height="327.2" width="250.08553227395836"><g transform="matrix(1,0,0,1,0,322.98317047105127)"><svg viewBox="0 0 395.52 194.4963607248284" height="194.4963607248284" width="395.52"><g id="textblocktransform"><svg viewBox="0 0 395.52 194.4963607248284" height="194.4963607248284" width="395.52" id="textblock"><g><svg viewBox="0 0 395.52 137.59093260753306" height="137.59093260753306" width="395.52"><g transform="matrix(1,0,0,1,0,0)"><svg width="395.52" viewBox="-2.080082306070838 -27.394691164643735 119.37349032866203 41.52687296321794" height="137.59093260753306" data-palette-color="#f4ab4f"><path d="M14.784 13.485v0c-1.636 0.509-3.272 0.557-4.909 0.145v0c-1.63-0.414-3.07-1.195-4.321-2.342-1.259-1.151-2.15-2.567-2.672-4.248v0l-0.657-2.11c-0.051-0.166-0.001-0.272 0.152-0.32v0l5.175-1.61c0.121-0.038 0.207 0.026 0.259 0.192v0l0.657 2.11c0.313 1.006 0.92 1.767 1.82 2.282 0.903 0.522 1.825 0.637 2.767 0.344v0c0.961-0.299 1.663-0.926 2.106-1.881 0.449-0.957 0.523-1.922 0.22-2.896v0c-0.351-1.127-1.395-1.88-3.134-2.261v0c-0.281-0.073-0.646-0.158-1.095-0.256-0.458-0.102-0.991-0.212-1.6-0.33v0c-0.617-0.122-1.215-0.247-1.792-0.374-0.582-0.119-1.145-0.237-1.692-0.354v0c-1.988-0.464-3.625-1.316-4.911-2.556-1.278-1.236-2.208-2.787-2.788-4.652v0c-0.531-1.706-0.591-3.38-0.181-5.023v0c0.414-1.63 1.175-3.057 2.281-4.281 1.113-1.226 2.462-2.086 4.047-2.579v0c1.636-0.509 3.264-0.572 4.884-0.189v0c1.626 0.402 3.058 1.157 4.297 2.265 1.241 1.115 2.124 2.519 2.652 4.213v0l1.176 3.781c0.038 0.121-0.001 0.199-0.115 0.235v0l-5.185 1.613c-0.115 0.036-0.191-0.007-0.228-0.128v0l-1.225-3.766c-0.335-1.076-0.945-1.849-1.832-2.321-0.885-0.465-1.795-0.552-2.73-0.26v0c-0.942 0.293-1.638 0.908-2.087 1.843-0.451 0.929-0.523 1.887-0.216 2.874v0c0.313 1.006 0.788 1.78 1.424 2.322 0.636 0.542 1.62 0.945 2.952 1.207v0c0.141 0.026 0.467 0.088 0.98 0.188 0.508 0.107 1.075 0.224 1.701 0.35 0.619 0.128 1.185 0.242 1.698 0.341 0.504 0.094 0.808 0.15 0.911 0.167v0c1.802 0.382 3.341 1.055 4.618 2.019 1.279 0.97 2.201 2.363 2.766 4.177v0c0.547 1.757 0.633 3.458 0.258 5.104v0c-0.392 1.658-1.143 3.103-2.254 4.335-1.117 1.234-2.509 2.111-4.177 2.63zM30.527 9.075v0l-5.383 0.967c-0.125 0.022-0.201-0.045-0.23-0.202v0l-5.816-32.657c-0.022-0.125 0.042-0.201 0.192-0.227v0l5.296-0.952c0.151-0.027 0.238 0.022 0.259 0.147v0l2.283 12.93 7.116-1.279-2.322-12.923c-0.022-0.125 0.029-0.198 0.154-0.22v0l5.295-0.952c0.151-0.027 0.238 0.022 0.26 0.147v0l5.964 32.629c0.028 0.157-0.036 0.25-0.194 0.279v0l-5.334 0.958c-0.157 0.028-0.25-0.036-0.279-0.194v0l-2.509-13.966-7.116 1.279 2.509 13.966c0.028 0.157-0.02 0.247-0.145 0.27zM51.651 6.214v0l-5.452 0.445c-0.159 0.013-0.246-0.06-0.258-0.219v0l-2.65-33.064c-0.01-0.126 0.048-0.195 0.174-0.205v0l5.402-0.441c0.126-0.01 0.195 0.048 0.205 0.174v0l2.739 33.056c0.013 0.159-0.04 0.244-0.16 0.254zM65.671 6.431v0l-5.849-0.108c-0.14-0.003-0.215-0.084-0.226-0.244v0l-6.069-33.287c-0.024-0.127 0.04-0.189 0.193-0.187v0l5.47 0.101c0.127 0.002 0.205 0.067 0.236 0.194v0l3.553 22.189 4.276-22.045c0.029-0.126 0.107-0.188 0.233-0.186v0l5.399 0.1c0.173 0.003 0.235 0.068 0.187 0.193v0l-7.159 33.044c-0.023 0.16-0.104 0.238-0.244 0.236zM68.153 6.055v0l9.836-32.239c0.048-0.122 0.135-0.175 0.261-0.161v0l6.952 0.821c0.126 0.015 0.198 0.087 0.216 0.216v0l1.823 33.616c-0.006 0.16-0.078 0.232-0.217 0.216v0l-5.313-0.627c-0.159-0.019-0.236-0.108-0.23-0.269v0l-0.103-3.567-6.534-0.771-0.931 3.445c-0.032 0.157-0.118 0.228-0.256 0.211v0l-5.343-0.63c-0.126-0.015-0.179-0.102-0.161-0.261zM81.021-1.187l-0.379-13.688-0.068-1.811-0.418 1.753-3.743 13.203zM93.499 10.213v0l-5.305-1.335c-0.123-0.031-0.165-0.124-0.125-0.279v0l8.182-32.145c0.031-0.123 0.108-0.169 0.23-0.138v0l5.722 1.439c0.123 0.031 0.214 0.119 0.273 0.265v0l2.723 7.254 5.802-5.109c0.121-0.1 0.25-0.133 0.386-0.099v0l5.741 1.445c0.136 0.034 0.188 0.113 0.157 0.236v0l-7.998 32.191c-0.039 0.155-0.12 0.217-0.243 0.186v0l-5.304-1.334c-0.123-0.031-0.165-0.124-0.126-0.279v0l5.962-23.898-6.701 5.893-3.084-8.355-6.049 23.875c-0.039 0.155-0.12 0.217-0.243 0.187z" opacity="1" transform="matrix(1,0,0,1,0,0)" fill="#f4ab4f" class="wordmark-text-0" data-fill-palette-color="primary" id="text-0"></path></svg></g></svg></g><g transform="matrix(1,0,0,1,114.20639999999997,149.44956198842968)"><svg viewBox="0 0 167.10720000000003 45.04679873639874" height="45.04679873639874" width="167.10720000000003"><g transform="matrix(1,0,0,1,0,0)"><svg width="167.10720000000003" viewBox="0.35 -37.65 142.44 38.4" height="45.04679873639874" data-palette-color="#000000"><path d="M11.75-35.25Q14.75-35.25 17.05-34.2 19.35-33.15 21.3-31.05L21.3-31.05 18.35-27.65Q16.8-29.05 15.33-29.75 13.85-30.45 12.2-30.45L12.2-30.45Q10.3-30.45 9.2-29.28 8.1-28.1 8.1-26.2L8.1-26.2Q8.1-24.3 9.25-23.1 10.4-21.9 13.75-20.6L13.75-20.6Q18.05-18.85 20.08-16.5 22.1-14.15 22.1-9.85L22.1-9.85Q22.1-6.9 20.75-4.48 19.4-2.05 16.88-0.65 14.35 0.75 11 0.75L11 0.75Q7.55 0.75 5-0.48 2.45-1.7 0.35-3.95L0.35-3.95 3.55-7.45Q5.35-5.85 7-5 8.65-4.15 10.6-4.15L10.6-4.15Q12.9-4.15 14.18-5.58 15.45-7 15.45-9.45L15.45-9.45Q15.45-11.6 14.33-12.98 13.2-14.35 10.15-15.5L10.15-15.5Q5.55-17.35 3.53-19.75 1.5-22.15 1.5-25.75L1.5-25.75Q1.5-28.5 2.83-30.65 4.15-32.8 6.5-34.02 8.85-35.25 11.75-35.25L11.75-35.25ZM38.45-27.15Q41.3-27.15 42.95-25.1 44.6-23.05 44.6-19.6L44.6-19.6 44.6 0 38.45 0 38.45-18.9Q38.45-20.8 37.92-21.63 37.4-22.45 36.4-22.45L36.4-22.45Q34.3-22.45 32.25-18.5L32.25-18.5 32.25 0 26.1 0 26.1-37 32.25-37.65 32.25-23.3Q33.5-25.25 34.97-26.2 36.45-27.15 38.45-27.15L38.45-27.15ZM67.05-6.4Q67.05-5.1 67.4-4.48 67.75-3.85 68.55-3.45L68.55-3.45 67.3 0.65Q65.25 0.4 64.02-0.45 62.8-1.3 62.2-3.05L62.2-3.05Q59.9 0.75 55.75 0.75L55.75 0.75Q52.45 0.75 50.5-1.48 48.55-3.7 48.55-7.4L48.55-7.4Q48.55-11.7 51.22-13.95 53.9-16.2 59-16.2L59-16.2 61.05-16.2 61.05-18.05Q61.05-20.55 60.17-21.58 59.3-22.6 57.34-22.6L57.34-22.6Q55-22.6 51.5-21.3L51.5-21.3 50.09-25.3Q52.09-26.2 54.25-26.68 56.4-27.15 58.34-27.15L58.34-27.15Q67.05-27.15 67.05-18.35L67.05-18.35 67.05-6.4ZM57.4-3.7Q59.8-3.7 61.05-7L61.05-7 61.05-12.55 59.59-12.55Q57.05-12.55 55.87-11.4 54.7-10.25 54.7-7.85L54.7-7.85Q54.7-5.8 55.4-4.75 56.09-3.7 57.4-3.7L57.4-3.7ZM84.49-27.1Q85.64-27.1 86.54-26.75L86.54-26.75 85.54-20.85Q84.54-21.1 83.69-21.1L83.69-21.1Q81.79-21.1 80.69-19.45 79.59-17.8 78.99-14.55L78.99-14.55 78.99 0 72.84 0 72.84-26.45 78.19-26.45 78.64-21.85Q80.49-27.1 84.49-27.1L84.49-27.1ZM113.04-27.15Q115.69-27.15 117.29-25.1 118.89-23.05 118.89-19.6L118.89-19.6 118.89 0 112.84 0 112.84-18.95Q112.84-20.85 112.34-21.68 111.84-22.5 110.89-22.5L110.89-22.5Q108.94-22.5 107.14-18.8L107.14-18.8 107.14 0 101.14 0 101.14-18.95Q101.14-22.5 99.24-22.5L99.24-22.5Q97.19-22.5 95.44-18.8L95.44-18.8 95.44 0 89.39 0 89.39-26.45 94.74-26.45 95.14-23.05Q97.74-27.15 101.39-27.15L101.39-27.15Q103.24-27.15 104.59-26 105.94-24.85 106.64-22.75L106.64-22.75Q109.29-27.15 113.04-27.15L113.04-27.15ZM141.29-6.4Q141.29-5.1 141.64-4.48 141.99-3.85 142.79-3.45L142.79-3.45 141.54 0.65Q139.49 0.4 138.26-0.45 137.04-1.3 136.44-3.05L136.44-3.05Q134.14 0.75 129.99 0.75L129.99 0.75Q126.69 0.75 124.74-1.48 122.79-3.7 122.79-7.4L122.79-7.4Q122.79-11.7 125.46-13.95 128.14-16.2 133.24-16.2L133.24-16.2 135.29-16.2 135.29-18.05Q135.29-20.55 134.41-21.58 133.54-22.6 131.59-22.6L131.59-22.6Q129.24-22.6 125.74-21.3L125.74-21.3 124.34-25.3Q126.34-26.2 128.49-26.68 130.64-27.15 132.59-27.15L132.59-27.15Q141.29-27.15 141.29-18.35L141.29-18.35 141.29-6.4ZM131.64-3.7Q134.04-3.7 135.29-7L135.29-7 135.29-12.55 133.84-12.55Q131.29-12.55 130.11-11.4 128.94-10.25 128.94-7.85L128.94-7.85Q128.94-5.8 129.64-4.75 130.34-3.7 131.64-3.7L131.64-3.7Z" opacity="1" transform="matrix(1,0,0,1,0,0)" fill="#000000" class="slogan-text-1" data-fill-palette-color="secondary" id="text-1"></path></svg></g></svg></g></svg></g></svg></g><g transform="matrix(1,0,0,1,96.89686294855481,0)"><svg viewBox="0 0 201.72627410289036 280.07864937096736" height="280.07864937096736" width="201.72627410289036"><g><svg xmlns="http://www.w3.org/2000/svg" xmlnsXlink="http://www.w3.org/1999/xlink" version="1.1" x="0" y="0" viewBox="11.8 9.3 81.10000000000001 112.60000000000001" enable-background="new 0 0 108.3 129.2" xmlSpace="preserve" height="280.07864937096736" width="201.72627410289036" class="icon-icon-0" data-fill-palette-color="accent" id="icon-0"><g fill="#f4ab4f" data-fill-palette-color="accent"><g fill="#f4ab4f" data-fill-palette-color="accent"><g fill="#f4ab4f" data-fill-palette-color="accent"><g fill="#f4ab4f" data-fill-palette-color="accent"><path fill="#f4ab4f" d="M71 121.4C67 121.4 63.8 119.9 62.1 118.5L61.8 118.2 50.2 106 54 102.4 65.4 114.5C66.3 115.1 71.7 118.5 78.3 113.5 80.3 112 81.4 110.3 81.6 108.5 81.9 105.3 79.5 102.4 79.4 102.4L65.8 88.4 69.6 84.7 83.2 98.8C83.4 99.1 87.3 103.5 86.7 109 86.4 112.4 84.6 115.3 81.3 117.7 77.8 120.5 74.2 121.4 71 121.4" data-fill-palette-color="accent"></path></g></g></g><g fill="#f4ab4f" data-fill-palette-color="accent"><g fill="#f4ab4f" data-fill-palette-color="accent"><g fill="#f4ab4f" data-fill-palette-color="accent"><path fill="#f4ab4f" d="M72 109.4C71.5 109.4 71.1 109.2 70.7 108.9L58.3 95.9C57.6 95.2 57.7 94.1 58.4 93.4S60.2 92.8 60.9 93.5L73.3 106.5C74 107.2 73.9 108.3 73.2 109 72.8 109.2 72.4 109.4 72 109.4" data-fill-palette-color="accent"></path></g></g></g><g fill="#f4ab4f" data-fill-palette-color="accent"><g fill="#f4ab4f" data-fill-palette-color="accent"><g fill="#f4ab4f" data-fill-palette-color="accent"><path fill="#f4ab4f" d="M30.1 109.7C29.7 109.7 29.2 109.5 28.9 109.2 28.2 108.5 28.2 107.4 28.9 106.7L67.8 67C69.6 65.4 74.3 61 75.5 59.2 77.2 56.7 77.3 53.2 77.3 49.8 77.2 36.1 66.1 25 52.4 25S27.6 36.1 27.6 49.8C27.6 55.1 28.6 59 30.6 61.8 33.6 65.9 44.8 76.7 44.9 76.8 45.6 77.5 45.6 78.6 44.9 79.3S43.1 80 42.4 79.3C42 78.8 31 68.2 27.8 63.9 25.3 60.5 24.1 55.9 24.1 49.9 24.1 34.3 36.8 21.6 52.4 21.6S80.7 34.3 80.7 49.9C80.7 53.8 80.5 57.9 78.3 61.2 76.7 63.7 70.8 69 70.1 69.6L31.3 109.2C31 109.5 30.5 109.7 30.1 109.7" data-fill-palette-color="accent"></path></g></g></g><g fill="#f4ab4f" data-fill-palette-color="accent"><g fill="#f4ab4f" data-fill-palette-color="accent"><g fill="#f4ab4f" data-fill-palette-color="accent"><path fill="#f4ab4f" d="M30.6 121.9C27.6 121.9 24.4 121 21.1 118.5 17.9 116 16 113.1 15.6 109.7 14.9 104.2 18.4 99.7 18.5 99.5L18.7 99.2 31.8 86.5 26.8 81.2C17.3 73.5 11.8 62 11.8 49.7 11.9 27.5 30 9.3 52.4 9.3S92.9 27.5 92.9 49.8C92.9 63.4 87.6 74.8 78 82L41.4 117.7C39.3 119.7 35.3 121.9 30.6 121.9M22.6 102.9C22.2 103.5 20.5 106.2 20.9 109.1 21.2 111 22.3 112.8 24.4 114.4 31.4 119.7 37.6 114.2 37.8 114L74.8 78C83.2 71.8 87.7 62.1 87.7 49.9 87.7 30.5 71.9 14.6 52.4 14.6S17.1 30.4 17.1 49.8C17.1 60.5 21.9 70.6 30.3 77.3L30.6 77.5 35.7 82.9 48.6 70.4 38 59.4C36.1 56.5 35 53.2 35 49.7 35 40.2 42.8 32.4 52.3 32.4S69.6 40.2 69.6 49.7C69.6 53.2 68.6 56.5 66.6 59.4L66.3 59.8 55.7 70.8zM42.3 56.4L52.4 66.8 62.5 56.4C63.8 54.5 64.4 52.2 64.4 49.9 64.4 43.3 59 37.9 52.4 37.9S40.4 43.3 40.4 49.9C40.4 52.2 41 54.4 42.3 56.4" data-fill-palette-color="accent"></path></g></g></g></g></svg></g></svg></g><g></g></svg></g><defs></defs></svg><rect width="250.08553227395836" height="327.2" fill="none" stroke="none" visibility="hidden"></rect></g></svg></g></svg>